<?xml version="1.0" encoding="utf-8"?>
<!-- Generator: Adobe Illustrator 28.0.0, SVG Export Plug-In . SVG Version: 6.00 Build 0)  -->
<svg version="1.1" id="Layer_1" xmlns="http://www.w3.org/2000/svg" xmlns:xlink="http://www.w3.org/1999/xlink" x="0px" y="0px"
	 viewBox="0 0 800 800" style="enable-background:new 0 0 800 800;" xml:space="preserve">
<style type="text/css">
	.st0{fill:#FFFFFF;}
</style>
<g id="Layer_2_00000017486268552399700890000001419027546382165158_">
	<circle class="st0" cx="456.3" cy="343.9" r="298.6"/>
</g>
<g id="Capa_1" transform="matrix(-1, 0, 0, 1, 0, 0)">
	<g id="SVGRepo_bgCarrier">
	</g>
	<g id="SVGRepo_tracerCarrier">
	</g>
	<g id="SVGRepo_iconCarrier">
		<g>
			<path d="M-10.3,741.9l-180.2-180.4c48.6-59.2,77.7-135.1,77.7-217.6c0-189.7-153.8-343.6-343.6-343.6S-800,154.2-800,343.9
				s153.8,343.6,343.6,343.6c82.9,0,158.9-29.4,218.3-78.3l180.3,180.3c21,19.2,40.8,6.9,47.6,0C3.4,775.8,3.4,755.5-10.3,741.9z
				 M-733,343.9c0-152.7,123.9-276.5,276.6-276.5s276.7,123.8,276.7,276.5s-123.9,276.5-276.6,276.5S-733,496.6-733,343.9z"/>
		</g>
	</g>
</g>
<g id="Layer_2">
	<path d="M231.5,219c-11.3,19.4-38.4,76.5-28,162.8c3.7,31,18.7,71.6,35.8,97.7c17.3,26.5,36.8,51.1,51.9,64.1
		c28.3,24.3,58.4,14,45.1-9.4c-7-12.3-24.6-27.4-39.8-48c-17.8-24.2-33.2-54.6-39.3-75.6c-10.6-36.9-12-124.8,7.3-169.4
		c0.3-0.7,0.6-1.4,1-2.1c1.7-3.6,10.7-25.1-16.6-31C241.8,206.7,235.2,212.8,231.5,219z"/>
</g>
</svg>
